<svg xmlns="http://www.w3.org/2000/svg" viewBox="0 0 24 24" fill="none">
  <path fill-rule="evenodd" clip-rule="evenodd" d="M12 1.5a10.5 10.5 0 0 0-3.32 20.47c.52.1.72-.23.72-.5v-1.83c-2.94.64-3.56-1.4-3.56-1.4-.48-1.22-1.18-1.55-1.18-1.55-.96-.66.07-.64.07-.64 1.07.08 1.63 1.1 1.63 1.1.94 1.63 2.48 1.16 3.08.88.1-.68.37-1.16.67-1.42-2.35-.27-4.82-1.17-4.82-5.23 0-1.16.4-2.1 1.1-2.85-.12-.27-.48-1.36.1-2.83 0 0 .9-.29 2.94 1.1a10.1 10.1 0 0 1 5.36 0c2.04-1.39 2.94-1.1 2.94-1.1.58 1.47.22 2.56.1 2.83.7.75 1.1 1.69 1.1 2.85 0 4.07-2.48 4.96-4.84 5.22.38.33.72.98.72 1.98v2.94c0 .27.2.6.72.5A10.5 10.5 0 0 0 12 1.5Z" fill="#181717"/>
</svg>
